<svg xmlns="http://www.w3.org/2000/svg" width="1387" height="756" viewBox="0 0 1387 756">
<g>
<path d="M 618.00 527.29 C623.93,531.85 619.98,530.26 610.00,524.07 C572.41,500.74 545.40,462.44 535.95,419.02 C531.30,397.68 531.73,371.22 537.06,350.10 C544.64,320.07 557.94,296.60 580.86,272.81 C609.37,243.21 636.34,227.41 671.40,219.78 C685.06,216.80 718.93,216.52 731.73,219.28 C760.49,225.48 784.29,237.08 805.12,255.06 L 810.74 259.91 L 822.43 248.81 C828.86,242.71 834.47,238.12 834.89,238.61 C835.32,239.10 837.59,250.30 839.94,263.50 C842.29,276.70 846.66,300.05 849.66,315.40 C852.65,330.74 854.74,343.64 854.30,344.07 C853.86,344.50 842.47,342.25 829.00,339.07 C815.53,335.89 792.12,330.45 777.00,326.97 C761.88,323.50 749.30,320.49 749.05,320.30 C748.81,320.10 753.89,314.95 760.36,308.84 L 772.10 297.74 L 769.80 295.26 C763.53,288.51 747.21,279.10 735.00,275.20 C722.86,271.33 716.89,270.52 701.00,270.62 C687.63,270.70 684.14,271.07 675.57,273.34 C651.42,279.75 630.78,294.23 615.34,315.62 C612.68,319.31 608.91,324.17 606.96,326.42 C578.24,359.52 565.82,391.51 567.33,428.50 C568.47,456.52 576.61,479.92 592.81,501.73 C597.78,508.43 611.25,522.09 618.00,527.29 ZM 664.92 380.79 C664.34,382.47 663.28,384.06 662.57,384.34 C660.46,385.14 645.63,379.72 641.66,376.69 C636.19,372.52 634.72,368.94 635.18,360.88 C635.45,356.03 636.15,353.28 637.60,351.34 C641.14,346.60 646.32,343.12 652.00,341.68 L 657.50 340.28 L 657.80 334.64 L 658.10 329.00 L 668.00 329.00 L 668.00 334.48 C668.00,339.65 668.15,339.99 670.75,340.54 C672.26,340.85 675.30,341.52 677.50,342.02 C679.72,342.52 681.63,342.54 681.80,342.06 C681.97,341.59 684.74,337.19 687.97,332.29 C696.14,319.88 709.24,307.59 720.33,301.91 C725.01,299.52 728.66,297.25 728.43,296.89 C727.15,294.81 712.71,292.50 701.00,292.50 C683.19,292.50 669.48,296.35 655.64,305.23 L 650.72 308.39 L 648.35 305.44 L 645.97 302.50 L 648.74 300.21 C653.30,296.43 668.96,289.13 677.50,286.80 C684.19,284.98 688.12,284.63 701.50,284.65 C719.96,284.68 727.26,286.19 741.19,292.88 L 741.59 293.07 C748.66,296.46 751.91,298.02 751.77,299.12 C751.64,300.08 748.93,300.69 743.92,301.86 C719.97,307.44 701.34,322.56 689.66,345.89 C687.26,350.69 685.12,355.14 684.90,355.79 C684.62,356.61 682.52,356.17 678.00,354.34 C670.46,351.28 659.58,350.62 654.20,352.89 C651.01,354.24 648.00,358.35 648.00,361.37 C648.00,365.11 653.14,368.98 661.60,371.62 C669.82,374.18 669.98,374.29 668.00,376.00 C666.89,376.96 665.51,379.12 664.92,380.79 ZM 650.43 410.74 C648.20,414.49 646.22,414.76 640.50,412.09 C632.75,408.47 632.61,408.21 635.09,402.23 C637.28,396.97 638.29,396.04 639.58,398.13 C639.96,398.74 643.47,400.75 647.39,402.59 C651.30,404.43 653.94,405.94 653.25,405.96 C652.56,405.98 652.08,406.34 652.18,406.75 C652.28,407.16 651.49,408.96 650.43,410.74 Z" fill="rgb(27,70,136)"/>
<path d="M 723.30 392.98 C722.63,392.99 720.52,395.05 718.61,397.56 L 715.13 402.12 L 713.61 399.81 C712.78,398.54 711.40,395.81 710.54,393.75 C709.03,390.13 708.80,390.00 703.99,390.00 L 699.00 390.00 L 699.00 382.00 L 703.50 382.00 C707.98,382.00 708.00,381.98 708.00,378.50 C708.00,375.02 707.98,375.00 703.50,375.00 L 699.00 375.00 L 699.00 367.00 L 708.85 367.00 L 711.36 361.53 C716.96,349.30 728.86,341.01 741.30,340.67 C746.99,340.51 747.47,340.66 747.16,342.50 C746.98,343.60 745.97,345.43 744.91,346.56 C743.86,347.70 743.00,349.11 743.00,349.70 C743.00,350.28 740.97,351.27 738.48,351.90 C735.83,352.57 732.29,354.55 729.92,356.69 C725.70,360.50 722.63,365.29 723.71,366.37 C724.05,366.72 726.94,367.00 730.14,367.00 C735.23,367.00 735.86,367.21 735.33,368.75 C734.99,369.71 734.02,371.06 733.17,371.75 C732.32,372.44 732.04,373.08 732.56,373.17 C733.08,373.26 730.80,373.60 727.50,373.92 L 721.50 374.50 L 721.19 378.25 C720.93,381.44 721.18,382.00 722.88,382.00 C726.00,382.00 726.35,383.75 724.02,387.69 C722.33,390.56 722.16,391.48 723.19,392.14 C724.12,392.73 724.15,392.97 723.30,392.98 ZM 664.92 380.79 C665.51,379.12 666.89,376.96 668.00,376.00 C669.98,374.29 669.82,374.18 661.60,371.62 C659.94,371.10 658.42,370.54 657.03,369.94 C660.44,371.18 665.96,372.80 675.56,375.54 C682.10,377.41 688.61,382.95 689.96,387.80 C692.29,396.17 690.49,403.82 684.82,409.68 C681.58,413.02 679.22,414.21 672.30,415.98 L 668.10 417.05 L 667.80 422.78 L 667.50 428.50 L 663.24 428.81 C658.42,429.16 658.19,428.86 657.78,421.58 L 657.50 416.67 L 651.32 415.41 C649.30,415.00 647.19,414.43 645.16,413.77 C647.58,414.19 648.95,413.23 650.43,410.74 C651.49,408.96 652.28,407.16 652.18,406.75 C652.08,406.34 652.56,405.98 653.25,405.96 C653.94,405.94 651.30,404.43 647.39,402.59 C646.88,402.35 646.38,402.11 645.90,401.87 C649.40,403.35 653.64,404.67 656.91,405.13 C665.62,406.37 672.09,404.87 675.49,400.83 C680.81,394.50 677.48,389.37 665.86,385.97 C663.38,385.25 661.13,384.57 659.06,383.93 C660.77,384.36 662.05,384.53 662.57,384.34 C663.28,384.06 664.34,382.47 664.92,380.79 ZM 649.06 380.48 C641.56,377.51 638.52,374.90 636.43,370.87 C634.87,367.85 634.67,361.72 635.57,356.90 C635.39,358.05 635.26,359.36 635.18,360.88 C634.72,368.94 636.19,372.52 641.66,376.69 C643.09,377.78 645.92,379.18 649.06,380.48 ZM 651.04 366.45 C649.07,364.81 648.00,363.08 648.00,361.37 C648.00,362.18 649.16,364.23 650.58,365.92 C650.74,366.10 650.89,366.28 651.04,366.45 ZM 635.09 402.23 C633.70,405.59 633.13,407.14 634.28,408.50 C633.02,407.43 633.21,406.77 635.09,402.23 ZM 639.69 398.26 C639.64,398.21 639.60,398.16 639.58,398.13 C638.92,397.06 638.34,396.78 637.63,397.47 C638.32,396.79 638.90,397.02 639.51,398.02 C639.56,398.10 639.62,398.18 639.69,398.26 Z" fill="rgb(93,155,156)"/>
<path d="M 727.00 537.41 C716.74,539.02 699.25,540.01 692.00,539.38 C663.32,536.92 634.28,526.47 618.07,512.78 C598.98,496.66 584.57,471.08 579.88,445.00 C578.22,435.74 578.24,411.76 579.93,403.00 C582.41,390.05 592.53,362.99 594.88,363.00 C595.22,363.00 595.53,370.99 595.57,380.75 C595.64,397.09 595.86,399.21 598.36,407.40 C610.62,447.56 643.08,476.93 683.63,484.56 C696.56,486.99 717.29,486.12 729.50,482.64 C741.83,479.12 755.04,472.36 765.73,464.10 C773.64,457.99 782.00,449.74 782.00,448.05 C782.00,447.72 776.57,443.92 769.94,439.59 L 757.89 431.72 L 760.69 429.86 C762.24,428.85 763.83,428.01 764.23,428.01 C764.63,428.00 784.99,418.77 809.46,407.50 C833.94,396.23 854.34,387.00 854.80,387.00 C855.25,387.00 855.48,393.41 855.32,401.25 C855.15,409.09 854.87,432.71 854.69,453.74 C854.51,474.77 854.07,492.26 853.73,492.61 C853.38,492.95 847.87,489.58 841.49,485.12 C835.10,480.65 829.31,477.00 828.61,477.00 C827.92,477.00 824.96,479.94 822.05,483.53 C799.98,510.74 762.82,531.80 727.00,537.41 ZM 727.00 469.06 C721.31,470.70 716.01,471.31 705.00,471.59 C690.22,471.97 684.18,471.19 672.61,467.39 C666.54,465.40 652.41,458.48 651.53,457.06 C651.20,456.51 652.17,455.79 653.71,455.45 C678.29,450.12 696.36,437.47 708.98,416.75 C711.91,411.94 714.61,408.00 714.98,408.00 C715.35,408.00 716.66,409.08 717.90,410.39 L 720.14 412.78 L 717.68 417.64 C710.04,432.70 694.82,447.75 679.41,455.51 C675.56,457.45 673.25,459.12 674.06,459.38 C688.07,463.89 698.16,465.13 710.69,463.89 C725.13,462.45 737.61,457.96 748.27,450.37 L 753.04 446.97 L 756.11 449.24 L 759.18 451.50 L 754.84 455.26 C749.36,460.00 736.73,466.26 727.00,469.06 ZM 723.30 392.98 C723.55,392.98 723.72,392.96 723.82,392.91 C725.78,396.05 730.83,401.19 734.05,402.99 C737.62,404.99 739.91,405.48 745.58,405.49 C752.14,405.50 753.10,405.21 758.47,401.65 L 764.27 397.80 L 771.42 404.95 L 768.46 408.07 C766.83,409.78 763.25,412.35 760.50,413.78 C756.42,415.89 753.84,416.42 746.50,416.67 C736.69,417.01 731.94,415.91 724.64,411.64 C719.62,408.69 716.26,405.03 713.01,398.80 C713.23,399.19 713.43,399.54 713.61,399.81 L 715.13 402.12 L 718.61 397.56 C720.52,395.05 722.63,392.99 723.30,392.98 ZM 760.36 356.32 C752.35,350.22 741.98,349.40 733.97,353.81 C735.53,352.93 737.12,352.24 738.48,351.90 C740.97,351.27 743.00,350.28 743.00,349.70 C743.00,349.11 743.86,347.70 744.91,346.56 C745.97,345.43 746.98,343.60 747.16,342.50 C747.47,340.66 746.99,340.51 741.30,340.67 C734.71,340.85 728.28,343.26 722.85,347.30 C724.89,345.74 727.05,344.41 729.27,343.39 C734.80,340.85 736.63,340.53 745.50,340.51 C754.38,340.50 756.12,340.80 761.06,343.23 C764.11,344.73 767.68,347.10 768.99,348.49 L 771.38 351.03 L 767.54 354.96 L 763.71 358.88 ZM 723.48 392.33 C723.40,392.27 723.30,392.21 723.19,392.14 C722.16,391.48 722.33,390.56 724.02,387.69 C726.35,383.75 726.00,382.00 722.88,382.00 L 751.12 382.00 L 750.50 389.50 L 736.75 389.78 C729.19,389.93 723.00,390.46 723.00,390.95 C723.00,391.29 723.17,391.76 723.48,392.33 ZM 721.45 375.04 L 721.50 374.50 L 727.50 373.92 C730.80,373.60 733.08,373.26 732.56,373.17 C732.04,373.08 732.32,372.44 733.17,371.75 C734.02,371.06 734.99,369.71 735.33,368.75 C735.86,367.21 735.23,367.00 730.14,367.00 C726.94,367.00 724.05,366.72 723.71,366.37 C724.05,366.72 730.36,367.00 737.73,367.00 L 751.12 367.00 L 750.50 374.50 L 735.75 374.78 ZM 710.22 393.01 L 709.71 391.92 C709.88,392.23 710.04,392.59 710.22,393.01 Z" fill="rgb(120,221,165)"/>
<path d="M 727.00 537.41 C762.82,531.80 799.98,510.74 822.05,483.53 C824.96,479.94 827.92,477.00 828.61,477.00 C829.31,477.00 835.10,480.65 841.49,485.12 C847.87,489.58 853.38,492.95 853.73,492.61 C854.07,492.26 854.51,474.77 854.69,453.74 C854.87,432.71 855.15,409.09 855.32,401.25 C855.48,393.41 855.25,387.00 854.80,387.00 C854.34,387.00 833.94,396.23 809.46,407.50 C784.99,418.77 764.63,428.00 764.23,428.01 C763.83,428.01 762.24,428.85 760.69,429.86 L 757.89 431.72 L 769.94 439.59 C776.57,443.92 782.00,447.72 782.00,448.05 C782.00,449.74 773.64,457.99 765.73,464.10 C755.04,472.36 741.83,479.12 729.50,482.64 C717.29,486.12 696.56,486.99 683.63,484.56 C643.08,476.93 610.62,447.56 598.36,407.40 C595.86,399.21 595.64,397.09 595.57,380.75 C595.53,370.99 595.22,363.00 594.88,363.00 C592.53,362.99 582.41,390.05 579.93,403.00 C578.24,411.76 578.22,435.74 579.88,445.00 C584.57,471.08 598.98,496.66 618.07,512.78 C634.28,526.47 663.32,536.92 692.00,539.38 C699.25,540.01 716.74,539.02 727.00,537.41 ZM 618.00 527.29 C611.25,522.09 597.78,508.43 592.81,501.73 C576.61,479.92 568.47,456.52 567.33,428.50 C565.82,391.51 578.24,359.52 606.96,326.42 C608.91,324.17 612.68,319.31 615.34,315.62 C630.78,294.23 651.42,279.75 675.57,273.34 C684.14,271.07 687.63,270.70 701.00,270.62 C716.89,270.52 722.86,271.33 735.00,275.20 C747.21,279.10 763.53,288.51 769.80,295.26 L 772.10 297.74 L 760.36 308.84 C753.89,314.95 748.81,320.10 749.05,320.30 C749.30,320.49 761.88,323.50 777.00,326.97 C792.12,330.45 815.53,335.89 829.00,339.07 C842.47,342.25 853.86,344.50 854.30,344.07 C854.74,343.64 852.65,330.74 849.66,315.40 C846.66,300.05 842.29,276.70 839.94,263.50 C837.59,250.30 835.32,239.10 834.89,238.61 C834.47,238.12 828.86,242.71 822.43,248.81 L 810.74 259.91 L 805.12 255.06 C784.29,237.08 760.49,225.48 731.73,219.28 C718.93,216.52 685.06,216.80 671.40,219.78 C636.34,227.41 609.37,243.21 580.86,272.81 C557.94,296.60 544.64,320.07 537.06,350.10 C531.73,371.22 531.30,397.68 535.95,419.02 C545.40,462.44 572.41,500.74 610.00,524.07 C619.98,530.26 623.93,531.85 618.00,527.29 ZM 727.00 469.06 C736.73,466.26 749.36,460.00 754.84,455.26 L 759.18 451.50 L 756.11 449.24 L 753.04 446.97 L 748.27 450.37 C737.61,457.96 725.13,462.45 710.69,463.89 C698.16,465.13 688.07,463.89 674.06,459.38 C673.25,459.12 675.56,457.45 679.41,455.51 C694.82,447.75 710.04,432.70 717.68,417.64 L 720.14 412.78 L 717.90 410.39 C716.66,409.08 715.35,408.00 714.98,408.00 C714.61,408.00 711.91,411.94 708.98,416.75 C696.36,437.47 678.29,450.12 653.71,455.45 C652.17,455.79 651.20,456.51 651.53,457.06 C652.41,458.48 666.54,465.40 672.61,467.39 C684.18,471.19 690.22,471.97 705.00,471.59 C716.01,471.31 721.31,470.70 727.00,469.06 ZM 667.80 422.78 L 668.10 417.05 L 672.30 415.98 C679.22,414.21 681.58,413.02 684.82,409.68 C690.49,403.82 692.29,396.17 689.96,387.80 C688.61,382.95 682.10,377.41 675.56,375.54 C654.87,369.63 653.15,368.97 650.58,365.92 C649.16,364.23 648.00,362.18 648.00,361.37 C648.00,358.35 651.01,354.24 654.20,352.89 C659.58,350.62 670.46,351.28 678.00,354.34 C682.52,356.17 684.62,356.61 684.90,355.79 C685.12,355.14 687.26,350.69 689.66,345.89 C701.34,322.56 719.97,307.44 743.92,301.86 C754.79,299.32 754.82,299.41 741.19,292.88 C727.26,286.19 719.96,284.68 701.50,284.65 C688.12,284.63 684.19,284.98 677.50,286.80 C668.96,289.13 653.30,296.43 648.74,300.21 L 645.97 302.50 L 648.35 305.44 L 650.72 308.39 L 655.64 305.23 C669.48,296.35 683.19,292.50 701.00,292.50 C712.71,292.50 727.15,294.81 728.43,296.89 C728.66,297.25 725.01,299.52 720.33,301.91 C709.24,307.59 696.14,319.88 687.97,332.29 C684.74,337.19 681.97,341.59 681.80,342.06 C681.63,342.54 679.72,342.52 677.50,342.02 C675.30,341.52 672.26,340.85 670.75,340.54 C668.15,339.99 668.00,339.65 668.00,334.48 L 668.00 329.00 L 663.05 329.00 L 658.10 329.00 L 657.80 334.64 L 657.50 340.28 L 652.00 341.68 C646.32,343.12 641.14,346.60 637.60,351.34 C634.80,355.09 634.12,366.40 636.43,370.87 C639.65,377.10 645.17,379.93 665.86,385.97 C677.48,389.37 680.81,394.50 675.49,400.83 C672.09,404.87 665.62,406.37 656.91,405.13 C650.68,404.25 640.89,400.24 639.51,398.02 C638.29,396.05 637.25,397.05 635.09,402.23 C633.01,407.24 633.00,407.53 634.71,408.85 C637.93,411.33 645.02,414.13 651.32,415.41 L 657.50 416.67 L 657.78 421.58 C658.19,428.86 658.42,429.16 663.24,428.81 L 667.50 428.50 L 667.80 422.78 ZM 760.50 413.78 C763.25,412.35 766.83,409.78 768.46,408.07 L 771.42 404.95 L 767.84 401.38 L 764.27 397.80 L 758.47 401.65 C753.10,405.21 752.14,405.50 745.58,405.49 C739.91,405.48 737.62,404.99 734.05,402.99 C729.98,400.72 723.00,393.11 723.00,390.95 C723.00,390.46 729.19,389.93 736.75,389.78 L 750.50 389.50 L 750.81 385.75 L 751.12 382.00 L 736.06 382.00 L 721.00 382.00 L 721.00 378.53 L 721.00 375.05 L 735.75 374.78 L 750.50 374.50 L 750.81 370.75 L 751.12 367.00 L 737.73 367.00 C730.36,367.00 724.05,366.72 723.71,366.37 C722.63,365.30 725.69,360.51 729.86,356.74 C738.12,349.28 750.89,349.11 760.36,356.32 L 763.71 358.88 L 767.54 354.96 L 771.38 351.03 L 768.99 348.49 C767.68,347.10 764.11,344.73 761.06,343.23 C756.12,340.80 754.38,340.50 745.50,340.51 C736.63,340.53 734.80,340.85 729.27,343.39 C721.77,346.84 714.90,353.80 711.36,361.53 L 708.85 367.00 L 703.93 367.00 L 699.00 367.00 L 699.00 371.00 L 699.00 375.00 L 703.50 375.00 C707.98,375.00 708.00,375.02 708.00,378.50 C708.00,381.98 707.98,382.00 703.50,382.00 L 699.00 382.00 L 699.00 386.00 L 699.00 390.00 L 703.91 390.00 L 708.81 390.00 L 711.75 396.25 C715.42,404.07 718.97,408.31 724.64,411.64 C731.94,415.91 736.69,417.01 746.50,416.67 C753.84,416.42 756.42,415.89 760.50,413.78 Z" fill="rgb(250,254,250)"/>
</g>
</svg>